<svg xmlns="http://www.w3.org/2000/svg" width="213.279" height="260.586" viewBox="0 0 213.279 260.586"><defs><style>.a{fill:#ff4081;}</style></defs><path class="a" d="M-1254.118,379.156l-92.986-33.844a29.723,29.723,0,0,1-17.743-38.048L-1303.93,139.9a29.723,29.723,0,0,1,38.049-17.742L-1172.894,156a29.722,29.722,0,0,1,17.744,38.048l-60.917,167.369A29.737,29.737,0,0,1-1244,380.948,29.564,29.564,0,0,1-1254.118,379.156Zm-31.215-232.492-60.917,167.368a9.9,9.9,0,0,0,5.914,12.683l92.987,33.845a9.9,9.9,0,0,0,12.683-5.914l60.917-167.369a9.9,9.9,0,0,0-5.915-12.682l-4.649-1.693A9.9,9.9,0,0,0-1197,178.816a9.9,9.9,0,0,1-12.683,5.914l-46.493-16.922a9.9,9.9,0,0,1-5.915-12.683A9.9,9.9,0,0,0-1268,142.442l-4.649-1.692a9.863,9.863,0,0,0-3.381-.6A9.9,9.9,0,0,0-1285.332,146.664Zm43.274,139.1-48.731-17.737-18.991,8.856,22.839-62.642a7.4,7.4,0,0,1,9.461-4.441l55.693,20.271a7.429,7.429,0,0,1,4.428,9.495l-15.2,41.77a7.436,7.436,0,0,1-6.979,4.873A7.347,7.347,0,0,1-1242.058,285.767Zm-43.664-31.66,41.77,15.2,2.534-6.961-41.77-15.2Zm3.8-10.443,41.77,15.2,2.534-6.962-41.77-15.2Zm3.8-10.442,41.77,15.2,2.534-6.962-41.77-15.2Z" transform="translate(1366.639 -120.362)"/></svg>