<svg xmlns="http://www.w3.org/2000/svg" width="230.002" height="277.309" viewBox="0 0 230.002 277.309"><defs><style>.a{fill:#ff4081;}</style></defs><path class="a" d="M-55.316,349.483A29.722,29.722,0,0,1-85,319.8V141.688A29.722,29.722,0,0,1-55.316,112H43.638a29.722,29.722,0,0,1,29.686,29.685V319.8a29.722,29.722,0,0,1-29.686,29.685Zm-9.9-207.8V319.8a9.9,9.9,0,0,0,9.9,9.895H43.638a9.9,9.9,0,0,0,9.9-9.895V141.688a9.9,9.9,0,0,0-9.9-9.895H38.69a9.9,9.9,0,0,0-9.9,9.895,9.9,9.9,0,0,1-9.9,9.9H-30.578a9.9,9.9,0,0,1-9.9-9.9,9.9,9.9,0,0,0-9.9-9.895h-4.947A9.9,9.9,0,0,0-65.212,141.688Zm49.7,125.345a2.452,2.452,0,0,1-1.684-2.327V249.57l13.273,4.536-8.855,12.049a2.447,2.447,0,0,1-1.971,1A2.473,2.473,0,0,1-15.509,267.033Zm35.874-9.8L-13.848,245.54l33.642-40.53-43.475,37.172L-44.1,235.2a2.449,2.449,0,0,1-1.648-2.131,2.452,2.452,0,0,1,1.309-2.356L29,192.37a2.449,2.449,0,0,1,3.554,2.533l-8.975,60.376a2.446,2.446,0,0,1-2.422,2.085A2.494,2.494,0,0,1,20.365,257.233Z" transform="matrix(0.94, 0.342, -0.342, 0.94, 199.407, -76.176)"/></svg>